<?xml version="1.0" encoding="UTF-8"?>
<svg width="32px" height="32px" viewBox="0 0 30 30" version="1.1" xmlns="http://www.w3.org/2000/svg" xmlns:xlink="http://www.w3.org/1999/xlink">
    <!-- Generator: sketchtool 46.2 (44496) - http://www.bohemiancoding.com/sketch -->
    <title>6AFAACF2-7CA8-489C-89A9-1232793F2B7C</title>
    <desc>Created with sketchtool.</desc>
    <defs></defs>
    <g id="Symbols" stroke="none" stroke-width="1" fill="none" fill-rule="evenodd">
        <g id="Icon-/-Categories-/-רכב-/-Blue" fill="#ffffff">
            <path d="M6.27,14.27 L23.73,14.27 L21.87,8.63 L8.16,8.63 L6.27,14.27 Z M21.87,20.48 C22.3900026,20.48 22.8299982,20.3000018 23.19,19.94 C23.5500018,19.5799982 23.73,19.1300027 23.73,18.59 C23.73,18.0499973 23.5500018,17.6050017 23.19,17.255 C22.8299982,16.9049982 22.3900026,16.73 21.87,16.73 C21.3499974,16.73 20.9050018,16.9099982 20.535,17.27 C20.1649982,17.6300018 19.98,18.0699974 19.98,18.59 C19.98,19.1100026 20.1599982,19.5549982 20.52,19.925 C20.8800018,20.2950018 21.3299973,20.48 21.87,20.48 Z M8.16,20.48 C8.6800026,20.48 9.1199982,20.3000018 9.48,19.94 C9.8400018,19.5799982 10.02,19.1300027 10.02,18.59 C10.02,18.0499973 9.8400018,17.6050017 9.48,17.255 C9.1199982,16.9049982 8.6800026,16.73 8.16,16.73 C7.6399974,16.73 7.19500185,16.9099982 6.825,17.27 C6.45499815,17.6300018 6.27,18.0699974 6.27,18.59 C6.27,19.1100026 6.4499982,19.5549982 6.81,19.925 C7.1700018,20.2950018 7.6199973,20.48 8.16,20.48 Z M23.67,8 L26.25,15.5 L26.25,25.52 C26.25,25.8600017 26.1300012,26.1499988 25.89,26.39 C25.6499988,26.6300012 25.3600017,26.75 25.02,26.75 L23.73,26.75 C23.3899983,26.75 23.1000012,26.6300012 22.86,26.39 C22.6199988,26.1499988 22.5,25.8600017 22.5,25.52 L22.5,24.23 L7.5,24.23 L7.5,25.52 C7.5,25.8600017 7.3800012,26.1499988 7.14,26.39 C6.8999988,26.6300012 6.6100017,26.75 6.27,26.75 L4.98,26.75 C4.6399983,26.75 4.3500012,26.6300012 4.11,26.39 C3.8699988,26.1499988 3.75,25.8600017 3.75,25.52 L3.75,15.5 L6.33,8 C6.4500006,7.6199981 6.6799983,7.3200011 7.02,7.1 C7.3600017,6.8799989 7.7399979,6.77 8.16,6.77 L21.87,6.77 C22.2900021,6.77 22.6649983,6.8799989 22.995,7.1 C23.3250016,7.3200011 23.5499994,7.6199981 23.67,8 Z" id="Icon-/-Categories-/-רכב"></path>
        </g>
    </g>
</svg>
